<svg width="25" height="26" viewBox="0 0 25 26" fill="none" xmlns="http://www.w3.org/2000/svg">
<path d="M24.9998 12.5745C24.9706 10.1778 24.2612 7.8393 22.9552 5.83457C21.6492 3.82983 19.8012 2.24231 17.6286 1.25896C15.4559 0.27562 13.0493 -0.0625845 10.692 0.284157C8.33481 0.630914 6.12512 1.64817 4.32324 3.21617C2.52134 4.78415 1.20229 6.83756 0.521409 9.13454C-0.159455 11.4316 -0.173799 13.8764 0.480095 16.1814C1.13399 18.4863 2.42887 20.5552 4.21225 22.1445C5.99561 23.7338 8.19322 24.7772 10.5462 25.1519V16.2377H7.42115V12.5745H10.5462V9.79179C10.4739 9.14478 10.5436 8.48964 10.7505 7.87266C10.9573 7.25568 11.2963 6.6919 11.7433 6.22111C12.1903 5.75031 12.7346 5.38398 13.3377 5.14798C13.9409 4.91197 14.5882 4.81203 15.2339 4.85523C16.1711 4.86814 17.1061 4.95223 18.0308 5.10678V8.25111H16.4683C16.1989 8.21692 15.9251 8.24408 15.6676 8.3306C15.41 8.41712 15.175 8.56077 14.98 8.75094C14.7849 8.9411 14.6349 9.17294 14.541 9.42925C14.447 9.68567 14.4115 9.96001 14.437 10.232V12.606H17.9058L17.3433 16.2691H14.4526V25.0732C17.4056 24.6033 20.0935 23.084 22.0286 20.7908C23.9636 18.4977 25.0177 15.5827 24.9998 12.5745Z" fill="white"/>
</svg>
