<svg width="26" height="26" viewBox="0 0 26 26" fill="none" xmlns="http://www.w3.org/2000/svg">
<path d="M13 25C10.4269 25 8.57527 24.9987 7.13164 24.8587C5.70455 24.7204 4.79164 24.4545 4.06309 23.9967C3.23041 23.4736 2.52631 22.7695 2.00309 21.9369C1.54545 21.2084 1.27945 20.2955 1.14127 18.8684C1.00127 17.4247 1 15.5731 1 13C1 10.4269 1.00127 8.57527 1.14127 7.13164C1.27945 5.70455 1.54545 4.79164 2.00309 4.06309C2.52629 3.23039 3.23039 2.52629 4.06309 2.00309C4.79164 1.54545 5.70455 1.27945 7.13164 1.14127C8.57509 1.00127 10.4267 1 13 1C15.5731 1 17.4247 1.00127 18.8684 1.14127C20.2955 1.27945 21.2084 1.54545 21.9369 2.00309C22.7695 2.52631 23.4736 3.23041 23.9967 4.06309C24.4545 4.79164 24.7204 5.70455 24.8587 7.13164C24.9987 8.57527 25 10.4269 25 13C25 15.5731 24.9987 17.4247 24.8587 18.8684C24.7204 20.2955 24.4545 21.2084 23.9967 21.9369C23.4736 22.7695 22.7695 23.4736 21.9369 23.9967C21.2084 24.4545 20.2955 24.7204 18.8684 24.8587C17.4247 24.9987 15.5731 25 13 25Z" stroke="#031E29" stroke-width="1.25"/>
<path d="M13.65 19.2498C16.7428 19.2498 19.25 16.7426 19.25 13.6498C19.25 10.557 16.7428 8.0498 13.65 8.0498C10.5573 8.0498 8.05005 10.557 8.05005 13.6498C8.05005 16.7426 10.5573 19.2498 13.65 19.2498Z" stroke="#031E29" stroke-width="1.25"/>
<path d="M20.65 6.6501C21.4232 6.6501 22.05 6.0233 22.05 5.2501C22.05 4.4769 21.4232 3.8501 20.65 3.8501C19.8768 3.8501 19.25 4.4769 19.25 5.2501C19.25 6.0233 19.8768 6.6501 20.65 6.6501Z" fill="#031E29"/>
</svg>
