<svg width="26" height="26" viewBox="0 0 26 26" fill="none" xmlns="http://www.w3.org/2000/svg">
<path d="M13 25.1519C10.4269 25.1519 8.57527 25.1506 7.13164 25.0106C5.70455 24.8722 4.79164 24.6064 4.06309 24.1486C3.23041 23.6254 2.52631 22.9214 2.00309 22.0888C1.54545 21.3602 1.27945 20.4473 1.14127 19.0202C1.00127 17.5766 1 15.7249 1 13.1519C1 10.5788 1.00127 8.72713 1.14127 7.28349C1.27945 5.8564 1.54545 4.94349 2.00309 4.21495C2.52629 3.38225 3.23039 2.67814 4.06309 2.15495C4.79164 1.69731 5.70455 1.43131 7.13164 1.29313C8.57509 1.15313 10.4267 1.15186 13 1.15186C15.5731 1.15186 17.4247 1.15313 18.8684 1.29313C20.2955 1.43131 21.2084 1.69731 21.9369 2.15495C22.7695 2.67816 23.4736 3.38227 23.9967 4.21495C24.4545 4.94349 24.7204 5.8564 24.8587 7.28349C24.9987 8.72713 25 10.5788 25 13.1519C25 15.7249 24.9987 17.5766 24.8587 19.0202C24.7204 20.4473 24.4545 21.3602 23.9967 22.0888C23.4736 22.9214 22.7695 23.6254 21.9369 24.1486C21.2084 24.6064 20.2955 24.8722 18.8684 25.0106C17.4247 25.1506 15.5731 25.1519 13 25.1519Z" stroke="white" stroke-width="1.25"/>
<path d="M13 18.4853C15.9455 18.4853 18.3334 16.0975 18.3334 13.1519C18.3334 10.2064 15.9455 7.8186 13 7.8186C10.0545 7.8186 7.66669 10.2064 7.66669 13.1519C7.66669 16.0975 10.0545 18.4853 13 18.4853Z" stroke="white" stroke-width="1.25"/>
<path d="M19.6666 6.48527C20.403 6.48527 21 5.88832 21 5.15194C21 4.41556 20.403 3.8186 19.6666 3.8186C18.9303 3.8186 18.3333 4.41556 18.3333 5.15194C18.3333 5.88832 18.9303 6.48527 19.6666 6.48527Z" fill="white"/>
</svg>
