<svg width="25" height="26" viewBox="0 0 25 26" fill="none" xmlns="http://www.w3.org/2000/svg">
<path d="M12.5 0.151855C5.5957 0.151855 0 5.74756 0 12.6519C0 19.5562 5.5957 25.1519 12.5 25.1519C19.4043 25.1519 25 19.5562 25 12.6519C25 5.74756 19.4043 0.151855 12.5 0.151855ZM9.00391 17.8813H6.56738V10.0835H9.00391V17.8813ZM7.71973 9.10693H7.7002C6.81641 9.10693 6.24512 8.51123 6.24512 7.7544C6.24512 6.98291 6.83594 6.40186 7.73437 6.40186C8.63281 6.40186 9.18457 6.98291 9.2041 7.7544C9.20898 8.50635 8.6377 9.10693 7.71973 9.10693ZM18.75 17.8813H15.9863V13.8481C15.9863 12.7935 15.5566 12.0708 14.6045 12.0708C13.877 12.0708 13.4717 12.5591 13.2861 13.0278C13.2178 13.1938 13.2275 13.4282 13.2275 13.6675V17.8813H10.4883C10.4883 17.8813 10.5225 10.7329 10.4883 10.0835H13.2275V11.3091C13.3887 10.772 14.2627 10.0103 15.6592 10.0103C17.3926 10.0103 18.75 11.1333 18.75 13.5454V17.8813Z" fill="white"/>
</svg>
