<svg width="27" height="27" viewBox="0 0 27 27" fill="none" xmlns="http://www.w3.org/2000/svg">
<path d="M10.8675 15.6128L9.66938 16.8109C8.87294 15.8919 8.43545 14.7161 8.43751 13.5V6.75C8.43751 5.40734 8.97088 4.11967 9.92028 3.17027C10.8697 2.22087 12.1573 1.6875 13.5 1.6875C14.8427 1.6875 16.1303 2.22087 17.0797 3.17027C18.0291 4.11967 18.5625 5.40734 18.5625 6.75V7.91944L16.875 9.60694V6.75C16.875 5.85489 16.5194 4.99645 15.8865 4.36351C15.2536 3.73058 14.3951 3.375 13.5 3.375C12.6049 3.375 11.7465 3.73058 11.1135 4.36351C10.4806 4.99645 10.125 5.85489 10.125 6.75V13.5C10.125 14.2999 10.4034 15.0356 10.8675 15.6128ZM12.2378 16.6303C12.75 16.8369 13.3052 16.9146 13.8545 16.8566C14.4038 16.7986 14.9305 16.6066 15.3883 16.2976C15.8461 15.9885 16.2211 15.5718 16.4803 15.0841C16.7395 14.5963 16.875 14.0524 16.875 13.5V11.9931L18.5625 10.3056V13.5C18.5628 14.388 18.3296 15.2604 17.8861 16.0298C17.4427 16.7991 16.8047 17.4383 16.0362 17.8831C15.2677 18.328 14.3957 18.5629 13.5078 18.5643C12.6198 18.5656 11.7471 18.3334 10.9772 17.8909L12.2378 16.6303ZM8.30251 20.5656L9.5192 19.3506C10.4591 19.9404 11.5466 20.2522 12.6563 20.25H14.3438C15.9102 20.25 17.4125 19.6277 18.5201 18.5201C19.6277 17.4125 20.25 15.9102 20.25 14.3438V13.5C20.25 13.2762 20.3389 13.0616 20.4971 12.9034C20.6554 12.7451 20.87 12.6562 21.0938 12.6562C21.3175 12.6562 21.5321 12.7451 21.6904 12.9034C21.8486 13.0616 21.9375 13.2762 21.9375 13.5V14.3438C21.9375 16.3577 21.1375 18.2892 19.7133 19.7133C18.2892 21.1374 16.3577 21.9375 14.3438 21.9375V23.625H16.0313C16.255 23.625 16.4696 23.7139 16.6279 23.8721C16.7861 24.0304 16.875 24.245 16.875 24.4688C16.875 24.6925 16.7861 24.9071 16.6279 25.0654C16.4696 25.2236 16.255 25.3125 16.0313 25.3125H10.9688C10.745 25.3125 10.5304 25.2236 10.3721 25.0654C10.2139 24.9071 10.125 24.6925 10.125 24.4688C10.125 24.245 10.2139 24.0304 10.3721 23.8721C10.5304 23.7139 10.745 23.625 10.9688 23.625H12.6563V21.9375C11.0363 21.9375 9.53438 21.4312 8.30251 20.5656ZM7.03351 19.4484C5.76272 18.0523 5.05971 16.2316 5.06251 14.3438V13.5C5.06251 13.2762 5.1514 13.0616 5.30964 12.9034C5.46787 12.7451 5.68248 12.6562 5.90626 12.6562C6.13003 12.6562 6.34465 12.7451 6.50288 12.9034C6.66111 13.0616 6.75001 13.2762 6.75001 13.5V14.3438C6.75001 15.8422 7.30857 17.2125 8.22826 18.2537L7.03351 19.4484Z" fill="white"/>
<path d="M3.97406 22.6515C3.81561 22.806 3.60279 22.892 3.38148 22.8911C3.16017 22.8902 2.94808 22.8023 2.79093 22.6465C2.63377 22.4907 2.54413 22.2794 2.54133 22.0581C2.53852 21.8368 2.62278 21.6232 2.77594 21.4635L21.3384 2.78116C21.4969 2.62665 21.7097 2.54059 21.931 2.54151C22.1523 2.54244 22.3644 2.63028 22.5216 2.78611C22.6787 2.94193 22.7684 3.15327 22.7712 3.37456C22.774 3.59586 22.6897 3.8094 22.5366 3.96916L3.97406 22.6515Z" fill="#FF0000"/>
</svg>
