<svg width="36" height="36" viewBox="0 0 36 36" fill="none" xmlns="http://www.w3.org/2000/svg">
<path fill-rule="evenodd" clip-rule="evenodd" d="M2.62384 33.2094C5.24767 35.8333 9.47066 35.8333 17.9167 35.8333C26.3626 35.8333 30.5857 35.8333 33.2094 33.2094C35.8333 30.5857 35.8333 26.3626 35.8333 17.9167C35.8333 9.47066 35.8333 5.24767 33.2094 2.62384C30.5857 -2.38419e-07 26.3626 0 17.9167 0C9.47066 0 5.24767 -2.38419e-07 2.62384 2.62384C-2.38419e-07 5.24767 0 9.47066 0 17.9167C0 26.3626 -2.38419e-07 30.5857 2.62384 33.2094ZM30.0104 25.0833C30.0104 25.8254 29.4088 26.4271 28.6667 26.4271H7.16667C6.42454 26.4271 5.82292 25.8254 5.82292 25.0833C5.82292 24.3412 6.42454 23.7396 7.16667 23.7396H28.6667C29.4088 23.7396 30.0104 24.3412 30.0104 25.0833ZM28.6667 19.2604C29.4088 19.2604 30.0104 18.6588 30.0104 17.9167C30.0104 17.1746 29.4088 16.5729 28.6667 16.5729H7.16667C6.42454 16.5729 5.82292 17.1746 5.82292 17.9167C5.82292 18.6588 6.42454 19.2604 7.16667 19.2604H28.6667ZM30.0104 10.75C30.0104 11.4921 29.4088 12.0938 28.6667 12.0938H7.16667C6.42454 12.0938 5.82292 11.4921 5.82292 10.75C5.82292 10.0079 6.42454 9.40625 7.16667 9.40625H28.6667C29.4088 9.40625 30.0104 10.0079 30.0104 10.75Z" fill="white"/>
</svg>
