<svg width="37" height="36" viewBox="0 0 37 36" fill="none" xmlns="http://www.w3.org/2000/svg">
<path fill-rule="evenodd" clip-rule="evenodd" d="M3.20709 33.2094C5.83092 35.8333 10.0539 35.8333 18.4999 35.8333C26.9458 35.8333 31.169 35.8333 33.7927 33.2094C36.4166 30.5857 36.4166 26.3626 36.4166 17.9167C36.4166 9.47066 36.4166 5.24767 33.7927 2.62384C31.169 -2.13583e-07 26.9458 0 18.4999 0C10.0539 0 5.83092 -2.13583e-07 3.20709 2.62384C0.583252 5.24767 0.583252 9.47066 0.583252 17.9167C0.583252 26.3626 0.583252 30.5857 3.20709 33.2094ZM30.5937 25.0833C30.5937 25.8254 29.992 26.4271 29.2499 26.4271H7.74992C7.00779 26.4271 6.40617 25.8254 6.40617 25.0833C6.40617 24.3412 7.00779 23.7396 7.74992 23.7396H29.2499C29.992 23.7396 30.5937 24.3412 30.5937 25.0833ZM29.2499 19.2604C29.992 19.2604 30.5937 18.6588 30.5937 17.9167C30.5937 17.1746 29.992 16.5729 29.2499 16.5729H7.74992C7.00779 16.5729 6.40617 17.1746 6.40617 17.9167C6.40617 18.6588 7.00779 19.2604 7.74992 19.2604H29.2499ZM30.5937 10.75C30.5937 11.4921 29.992 12.0937 29.2499 12.0937H7.74992C7.00779 12.0937 6.40617 11.4921 6.40617 10.75C6.40617 10.0079 7.00779 9.40625 7.74992 9.40625H29.2499C29.992 9.40625 30.5937 10.0079 30.5937 10.75Z" fill="#031E29"/>
</svg>
