<svg width="181" height="30" viewBox="0 0 181 30" fill="none" xmlns="http://www.w3.org/2000/svg">
<path d="M18.16 22.2C18.16 24.52 17.28 26.32 15.52 27.6C13.76 28.8533 11.5067 29.48 8.76 29.48C6.04 29.48 3.18667 28.84 0.2 27.56C0.706667 23.16 1.01333 20.96 1.12 20.96C2.26667 20.96 2.84 21.12 2.84 21.44V25.88C4.57333 27 6.50667 27.56 8.64 27.56C10.8 27.56 12.36 27.1067 13.32 26.2C14.28 25.2933 14.76 24.1333 14.76 22.72C14.76 20.88 13.8133 19.4133 11.92 18.32L4.84 14.28C3.50667 13.5333 2.49333 12.6 1.8 11.48C1.10667 10.3333 0.76 9.13333 0.76 7.88C0.76 5.88 1.57333 4.16 3.2 2.72C4.85333 1.25333 7.09333 0.52 9.92 0.52C11.9733 0.52 14.28 0.999999 16.84 1.96L15.8 8.12C14.68 8.12 14.12 7.93333 14.12 7.56V3.52C12.68 2.85333 11.2 2.52 9.68 2.52C6.96 2.52 4.98667 3.52 3.76 5.52C3.62667 5.97333 3.56 6.50666 3.56 7.12C3.56 8.96 4.56 10.4533 6.56 11.6L13.44 15.52C14.96 16.4 16.12 17.44 16.92 18.64C17.7467 19.84 18.16 21.0267 18.16 22.2ZM34.4684 17.44L30.7084 29H28.0284L22.6684 11.28L20.7484 10.64C20.7484 9.84 20.9884 9.44 21.4684 9.44L24.3884 9.56L27.5084 9.44C27.9884 9.44 28.2284 9.85333 28.2284 10.68L25.7884 11.24C26.1618 12.6533 26.7751 14.88 27.6284 17.92C28.4818 20.96 29.1484 23.3867 29.6284 25.2L34.3084 10.84H35.2684L39.7884 25.2L43.7484 11.24C42.2818 10.92 41.4684 10.7333 41.3084 10.68C41.3084 9.85333 41.5618 9.44 42.0684 9.44L45.2284 9.56L47.5084 9.44C47.9618 9.49333 48.1884 9.90667 48.1884 10.68L46.2684 11.28L40.9884 29H38.3084L34.4684 17.44ZM53.5413 11.24L50.9813 10.68C50.9813 9.85333 51.2213 9.44 51.7013 9.44C52.1013 9.44 53.2079 9.48 55.0213 9.56L58.2613 9.44C58.7146 9.44 58.9413 9.84 58.9413 10.64L56.3813 11.24V27.2L58.9413 27.76C58.9413 28.5867 58.7146 29 58.2613 29L55.0213 28.76L51.7013 29C51.2213 29 50.9813 28.5867 50.9813 27.76L53.5413 27.2V11.24ZM76.045 20.08L68.885 20.52L68.605 27.2L72.005 27.76C72.005 28.5867 71.7783 29 71.325 29L67.365 28.76L64.045 29C63.565 29 63.325 28.5867 63.325 27.76L65.885 27.2V11.24L63.325 10.68C63.325 9.85333 63.565 9.44 64.045 9.44C64.445 9.44 65.5517 9.48 67.365 9.56L76.165 9.44C76.6717 9.44 76.9917 9.49333 77.125 9.6C77.285 9.68 77.365 9.81333 77.365 10L76.645 14.24C75.5517 14.24 75.005 14.04 75.005 13.64V11.32L68.565 11.4L68.925 18.44H76.045V20.08ZM93.8613 11.28L89.3013 11.36V27.08L92.5413 27.76C92.5413 28.5867 92.3146 29 91.8613 29L87.9813 28.76L84.0213 29C83.5146 29 83.2613 28.5867 83.2613 27.76L86.5013 27.08V11.36L81.9813 11.28L81.5813 14.08C81.5813 14.48 81.0479 14.68 79.9813 14.68L79.5813 9.96C79.6346 9.61333 80.0346 9.44 80.7813 9.44L87.9813 9.6L95.0613 9.44C95.8079 9.44 96.2079 9.61333 96.2613 9.96L95.8613 14.68C94.7946 14.68 94.2613 14.48 94.2613 14.08L93.8613 11.28ZM124.557 23.24L124.317 27.48C122.583 28.7067 120.303 29.32 117.477 29.32C114.65 29.32 112.343 28.4533 110.557 26.72C108.77 24.96 107.877 22.4667 107.877 19.24C107.877 15.9867 108.837 13.4933 110.757 11.76C112.677 10 115.117 9.12 118.077 9.12C120.477 9.12 122.583 9.70667 124.397 10.88L123.557 15.28C122.41 15.28 121.837 15.0667 121.837 14.64V11.76C120.717 11.3867 119.45 11.2 118.037 11.2C116.623 11.2 115.223 11.4 113.837 11.8C112.983 12.44 112.29 13.4267 111.757 14.76C111.223 16.0667 110.957 17.5333 110.957 19.16C110.957 21.8267 111.597 23.8667 112.877 25.28C114.183 26.6933 115.783 27.4 117.677 27.4C119.57 27.4 121.063 27.0933 122.157 26.48L122.837 23.76C122.97 23.4133 123.543 23.24 124.557 23.24ZM131.319 27.2L133.999 27.76C133.999 28.5867 133.759 29 133.279 29C133.066 29 131.906 28.96 129.799 28.88L127.039 29C126.586 29 126.359 28.6 126.359 27.8L128.679 27.2L135.439 9.44H138.039L144.879 27.16L147.199 27.8C147.199 28.6 146.959 29 146.479 29C146.026 29 144.959 28.96 143.279 28.88L139.799 29C139.319 29 139.079 28.5867 139.079 27.76L141.799 27.2L140.199 22.76L132.759 23.16L131.319 27.2ZM136.479 12.52L133.439 21.08H139.559L136.479 12.52ZM162.259 29L153.459 28.76L150.139 29C149.659 29 149.419 28.5867 149.419 27.76L151.979 27.2V11.24L149.419 10.68C149.419 9.85333 149.659 9.44 150.139 9.44L153.459 9.56L156.699 9.44C157.152 9.44 157.379 9.84 157.379 10.64L154.819 11.24V27.04H161.259L161.939 24.76C162.019 24.4667 162.165 24.28 162.379 24.2C162.619 24.12 163.032 24.08 163.619 24.08L163.379 28.52C163.325 28.84 162.952 29 162.259 29ZM179.446 29L170.646 28.76L167.326 29C166.846 29 166.606 28.5867 166.606 27.76L169.166 27.2V11.24L166.606 10.68C166.606 9.85333 166.846 9.44 167.326 9.44L170.646 9.56L173.886 9.44C174.34 9.44 174.566 9.84 174.566 10.64L172.006 11.24V27.04H178.446L179.126 24.76C179.206 24.4667 179.353 24.28 179.566 24.2C179.806 24.12 180.22 24.08 180.806 24.08L180.566 28.52C180.513 28.84 180.14 29 179.446 29Z" fill="#031E29"/>
</svg>
